<svg width="29" height="32" viewBox="0 0 29 32" fill="none" xmlns="http://www.w3.org/2000/svg">
  <path fill-rule="evenodd" clip-rule="evenodd"
    d="M12.7928 25.7068C12.6053 25.5193 12.5 25.265 12.5 24.9998C12.5 24.7346 12.6053 24.4803 12.7928 24.2928L16.7928 20.2928C16.9803 20.1053 17.2346 20 17.4998 20C17.765 20 18.0193 20.1053 18.2068 20.2928L22.2068 24.2928C22.3889 24.4814 22.4897 24.734 22.4875 24.9962C22.4852 25.2584 22.38 25.5092 22.1946 25.6946C22.0092 25.88 21.7584 25.9852 21.4962 25.9875C21.234 25.9897 20.9814 25.8889 20.7928 25.7068L18.4998 23.4138V34.9998C18.4998 35.265 18.3944 35.5194 18.2069 35.7069C18.0194 35.8944 17.765 35.9998 17.4998 35.9998C17.2346 35.9998 16.9802 35.8944 16.7927 35.7069C16.6051 35.5194 16.4998 35.265 16.4998 34.9998V23.4138L14.2068 25.7068C14.0193 25.8943 13.765 25.9996 13.4998 25.9996C13.2346 25.9996 12.9803 25.8943 12.7928 25.7068Z"
    fill="currentColor" fill-opacity="0.7" />
  <path
    d="M21.7917 7.5V4.5C21.7917 3.70435 21.4844 2.94129 20.9374 2.37868C20.3904 1.81607 19.6485 1.5 18.875 1.5H4.29167C3.51812 1.5 2.77625 1.81607 2.22927 2.37868C1.68229 2.94129 1.375 3.70435 1.375 4.5V13.5C1.375 14.2956 1.68229 15.0587 2.22927 15.6213C2.77625 16.1839 3.51812 16.5 4.29167 16.5H7.20833M10.125 22.5C9.35145 22.5 8.60959 22.1839 8.06261 21.6213C7.51562 21.0587 7.20833 20.2956 7.20833 19.5V10.5C7.20833 9.70435 7.51562 8.94129 8.06261 8.37868C8.60959 7.81607 9.35145 7.5 10.125 7.5H24.7083C25.4819 7.5 26.2237 7.81607 26.7707 8.37868C27.3177 8.94129 27.625 9.70435 27.625 10.5V19.5C27.625 20.2956 27.3177 21.0587 26.7707 21.6213C26.2237 22.1839 25.4819 22.5 24.7083 22.5M20.3333 15C20.3333 15.7956 20.026 16.5587 19.4791 17.1213C18.9321 17.6839 18.1902 18 17.4167 18C16.6431 18 15.9013 17.6839 15.3543 17.1213C14.8073 16.5587 14.5 15.7956 14.5 15C14.5 14.2044 14.8073 13.4413 15.3543 12.8787C15.9013 12.3161 16.6431 12 17.4167 12C18.1902 12 18.9321 12.3161 19.4791 12.8787C20.026 13.4413 20.3333 14.2044 20.3333 15Z"
    stroke="currentColor" stroke-opacity="0.7" stroke-width="2" stroke-linecap="round"
    stroke-linejoin="round" />
</svg>
  