<svg width="35" height="38" viewBox="0 0 35 38" fill="none">
  <path fill-rule="evenodd" clip-rule="evenodd"
    d="M25.2072 30.293C25.3947 30.4805 25.5 30.7348 25.5 31C25.5 31.2651 25.3947 31.5194 25.2072 31.707L21.2072 35.707C21.0197 35.8944 20.7654 35.9998 20.5002 35.9998C20.235 35.9998 19.9807 35.8944 19.7932 35.707L15.7932 31.707C15.6111 31.5184 15.5103 31.2658 15.5125 31.0036C15.5148 30.7414 15.62 30.4906 15.8054 30.3052C15.9908 30.1197 16.2416 30.0146 16.5038 30.0123C16.766 30.01 17.0186 30.1108 17.2072 30.293L19.5002 32.586V21C19.5002 20.7348 19.6056 20.4804 19.7931 20.2929C19.9806 20.1053 20.235 20 20.5002 20C20.7654 20 21.0198 20.1053 21.2073 20.2929C21.3949 20.4804 21.5002 20.7348 21.5002 21V32.586L23.7932 30.293C23.9807 30.1055 24.235 30.0002 24.5002 30.0002C24.7654 30.0002 25.0197 30.1055 25.2072 30.293Z"
    fill="currentColor" />
  <path
    d="M24.7917 13.5V10.5C24.7917 9.70435 24.4844 8.94129 23.9374 8.37868C23.3904 7.81607 22.6485 7.5 21.875 7.5H7.29167C6.51812 7.5 5.77625 7.81607 5.22927 8.37868C4.68229 8.94129 4.375 9.70435 4.375 10.5V19.5C4.375 20.2956 4.68229 21.0587 5.22927 21.6213C5.77625 22.1839 6.51812 22.5 7.29167 22.5H10.2083M13.125 28.5C12.3515 28.5 11.6096 28.1839 11.0626 27.6213C10.5156 27.0587 10.2083 26.2956 10.2083 25.5V16.5C10.2083 15.7044 10.5156 14.9413 11.0626 14.3787C11.6096 13.8161 12.3515 13.5 13.125 13.5H27.7083C28.4819 13.5 29.2237 13.8161 29.7707 14.3787C30.3177 14.9413 30.625 15.7044 30.625 16.5V25.5C30.625 26.2956 30.3177 27.0587 29.7707 27.6213C29.2237 28.1839 28.4819 28.5 27.7083 28.5M23.3333 21C23.3333 21.7956 23.026 22.5587 22.4791 23.1213C21.9321 23.6839 21.1902 24 20.4167 24C19.6431 24 18.9013 23.6839 18.3543 23.1213C17.8073 22.5587 17.5 21.7956 17.5 21C17.5 20.2044 17.8073 19.4413 18.3543 18.8787C18.9013 18.3161 19.6431 18 20.4167 18C21.1902 18 21.9321 18.3161 22.4791 18.8787C23.026 19.4413 23.3333 20.2044 23.3333 21Z"
    stroke="currentColor" stroke-width="2" stroke-linecap="round"
    stroke-linejoin="round" />
</svg>
  