<svg width="32" height="27" viewBox="0 0 32 27" fill="none" xmlns="http://www.w3.org/2000/svg">
  <path fill-rule="evenodd" clip-rule="evenodd"
    d="M26.0864 0.305243C26.2739 0.117771 26.5282 0.0124559 26.7934 0.0124559C27.0585 0.0124559 27.3128 0.117771 27.5003 0.305243L31.5004 4.30524C31.6878 4.49277 31.7931 4.74708 31.7931 5.01224C31.7931 5.27741 31.6878 5.53171 31.5004 5.71924L27.5003 9.71924C27.3117 9.9014 27.0591 10.0022 26.7969 9.99992C26.5348 9.99764 26.2839 9.89247 26.0985 9.70706C25.9131 9.52165 25.808 9.27084 25.8057 9.00864C25.8034 8.74645 25.9042 8.49384 26.0864 8.30524L28.3794 6.01224H16.7934C16.5281 6.01224 16.2738 5.90689 16.0862 5.71935C15.8987 5.53181 15.7934 5.27746 15.7934 5.01224C15.7934 4.74703 15.8987 4.49267 16.0862 4.30514C16.2738 4.1176 16.5281 4.01224 16.7934 4.01224H28.3794L26.0864 1.71924C25.8989 1.53171 25.7936 1.27741 25.7936 1.01224C25.7936 0.747078 25.8989 0.49277 26.0864 0.305243Z"
    fill="white" />
  <path
    d="M7.70833 20H4.79167C4.01812 20 3.27625 19.6839 2.72927 19.1213C2.18229 18.5587 1.875 17.7956 1.875 17V8C1.875 7.20435 2.18229 6.44129 2.72927 5.87868C3.27625 5.31607 4.01812 5 4.79167 5H10.5H13.5M10.625 26C9.85145 26 9.10959 25.6839 8.56261 25.1213C8.01562 24.5587 7.70833 23.7956 7.70833 23V14C7.70833 13.2044 8.01562 12.4413 8.56261 11.8787C9.10959 11.3161 9.85145 11 10.625 11H25.2083C25.9819 11 26.7237 11.3161 27.2707 11.8787C27.8177 12.4413 28.125 13.2044 28.125 14V23C28.125 23.7956 27.8177 24.5587 27.2707 25.1213C26.7237 25.6839 25.9819 26 25.2083 26H22H18C20.4028 26 22.2917 26 10.625 26ZM20.8333 18.5C20.8333 19.2956 20.526 20.0587 19.9791 20.6213C19.4321 21.1839 18.6902 21.5 17.9167 21.5C17.1431 21.5 16.4013 21.1839 15.8543 20.6213C15.3073 20.0587 15 19.2956 15 18.5C15 17.7044 15.3073 16.9413 15.8543 16.3787C16.4013 15.8161 17.1431 15.5 17.9167 15.5C18.6902 15.5 19.4321 15.8161 19.9791 16.3787C20.526 16.9413 20.8333 17.7044 20.8333 18.5Z"
    stroke="white" stroke-width="2" stroke-linecap="round" stroke-linejoin="round" />
</svg>